<svg xmlns="http://www.w3.org/2000/svg" shape-rendering="geometricPrecision" text-rendering="geometricPrecision" image-rendering="optimizeQuality" fill-rule="evenodd" clip-rule="evenodd" viewBox="0 0 512 512"><path fill="#848484" d="M74.981 74.981c99.976-99.975 262.063-99.975 362.038 0 99.975 99.976 99.975 262.063 0 362.038-99.975 99.975-262.062 99.975-362.038 0-99.975-99.975-99.975-262.063 0-362.038zm270.295 91.742l.003.003c8.86 8.86 8.819 23.415.003 32.232l-57.043 57.043 59.133 59.133c8.861 8.861 8.856 23.375-.002 32.233l-.003.002c-8.86 8.861-23.417 8.818-32.232.003l-59.134-59.134-57.041 57.041c-8.816 8.816-23.411 8.823-32.234 0l-.003-.003c-8.824-8.823-8.865-23.37 0-32.234l57.041-57.041-59.133-59.132c-8.815-8.816-8.821-23.414 0-32.235l.003-.003c8.821-8.821 23.372-8.863 32.235 0l59.133 59.132 57.043-57.043c8.861-8.862 23.375-8.853 32.231.003z"/></svg>